<?xml version="1.0" encoding="UTF-8"?>
<svg version="1.1" xmlns="http://www.w3.org/2000/svg" width="256" height="81">
<path d="M0 0 C0.33 0 0.66 0 1 0 C1.495 3.465 1.495 3.465 2 7 C2.33 4.69 2.66 2.38 3 0 C3.33 0 3.66 0 4 0 C4.495 4.95 4.495 4.95 5 10 C11.102596 12.55434393 16.722134 12.09516151 23.1875 11.83398438 C29.46757142 11.69035498 29.46757142 11.69035498 32.5859375 13.50390625 C33.28589844 14.24447266 33.28589844 14.24447266 34 15 C34.350625 14.525625 34.70125 14.05125 35.0625 13.5625 C37.84163543 11.32126175 40.5144717 11.32882342 44 11 C43.67 14.96 43.34 18.92 43 23 C41.35 23 39.7 23 38 23 C37.505 21.515 37.505 21.515 37 20 C36.01 21.485 36.01 21.485 35 23 C33.0625 22.625 33.0625 22.625 31 22 C30.505 21.01 30.505 21.01 30 20 C29.505 21.485 29.505 21.485 29 23 C28.2575 22.979375 27.515 22.95875 26.75 22.9375 C24.0951523 22.88374388 24.0951523 22.88374388 22 23.5625 C19.43990488 24.12252081 17.51673514 23.62918378 15 23 C15 20.69 15 18.38 15 16 C13.68 16.33 12.36 16.66 11 17 C11 18.32 11 19.64 11 21 C7.31884463 23.45410358 5.34706402 23.23287843 1 23 C0.01 22.67 -0.98 22.34 -2 22 C-2.495 22.495 -2.495 22.495 -3 23 C-5.01964199 23.07244053 -7.04167124 23.08377188 -9.0625 23.0625 C-10.16722656 23.05347656 -11.27195312 23.04445313 -12.41015625 23.03515625 C-13.26480469 23.02355469 -14.11945313 23.01195313 -15 23 C-15.33 21.02 -15.66 19.04 -16 17 C-16.99 18.98 -17.98 20.96 -19 23 C-21.97 23 -24.94 23 -28 23 C-28 21.02 -28 19.04 -28 17 C-28.33 18.98 -28.66 20.96 -29 23 C-31.3125 23.25 -31.3125 23.25 -34 23 C-35.8125 21 -35.8125 21 -37 19 C-37.33 20.32 -37.66 21.64 -38 23 C-39.65 23 -41.3 23 -43 23 C-43 19.37 -43 15.74 -43 12 C-28.99301491 10.22446668 -28.99301491 10.22446668 -24 12 C-22.75 14.05078125 -22.75 14.05078125 -22 16 C-21.34 14.68 -20.68 13.36 -20 12 C-10.1 11.505 -10.1 11.505 0 11 C-0.495 10.01 -0.495 10.01 -1 9 C-0.91348369 7.45386986 -0.75997364 5.91090613 -0.5625 4.375 C-0.46066406 3.55773438 -0.35882813 2.74046875 -0.25390625 1.8984375 C-0.17011719 1.27195313 -0.08632812 0.64546875 0 0 Z M-35 12 C-35 15 -35 15 -35 15 Z M-3 16 C-2 18 -2 18 -2 18 Z M20 16 C20 18.31 20 20.62 20 23 C20.33 23 20.66 23 21 23 C21 21.02 21 19.04 21 17 C21.99 16.67 22.98 16.34 24 16 C22.68 16 21.36 16 20 16 Z M23 18 C24 22 24 22 24 22 Z M-27 19 C-26 21 -26 21 -26 21 Z " fill="#555555" transform="translate(104,32)"/>
<path d="M0 0 C1.07894531 0.04640625 2.15789063 0.0928125 3.26953125 0.140625 C4.35621094 0.17671875 5.44289063 0.2128125 6.5625 0.25 C7.39394531 0.29640625 8.22539063 0.3428125 9.08203125 0.390625 C9.7421875 2.19946289 9.7421875 2.19946289 10.08203125 4.390625 C7.63420792 7.31234095 5.05665282 9.89536493 2.30859375 12.52539062 C-0.95062966 15.67091145 -0.95062966 15.67091145 -2.203125 19.85546875 C-0.25091917 23.70647661 2.61178659 26.47968461 5.64453125 29.515625 C6.86081881 30.74082776 8.0707963 31.97233693 9.2734375 33.2109375 C9.81170166 33.74992676 10.34996582 34.28891602 10.90454102 34.84423828 C12.08203125 36.390625 12.08203125 36.390625 12.08203125 39.390625 C8.01448479 40.74647382 4.3349065 40.91092357 0.08203125 40.390625 C-4.81486392 37.59239919 -8.28894713 32.65645168 -11.91796875 28.390625 C-13.2282974 26.88872784 -14.54071375 25.38864888 -15.85546875 23.890625 C-16.87630208 22.72395833 -17.89713542 21.55729167 -18.91796875 20.390625 C-17.27914669 16.35660146 -14.43145043 13.49935146 -11.48046875 10.390625 C-7.67981092 6.44330213 -7.67981092 6.44330213 -4.45703125 2.03125 C-2.91796875 0.390625 -2.91796875 0.390625 0 0 Z " fill="#11B4F3" transform="translate(32.91796875,22.609375)"/>
<path d="M0 0 C0.33 0 0.66 0 1 0 C1.33 2.31 1.66 4.62 2 7 C2.12375 6.401875 2.2475 5.80375 2.375 5.1875 C3 3 3 3 5 0 C7.875 -0.4375 7.875 -0.4375 11 0 C13.375 2 13.375 2 15 4 C15.309375 3.34902344 15.61875 2.69804688 15.9375 2.02734375 C18.74239317 -0.72973874 20.69545171 -0.49492582 24.515625 -0.49804688 C25.74539062 -0.46807617 25.74539062 -0.46807617 27 -0.4375 C28.22976562 -0.44813477 28.22976562 -0.44813477 29.484375 -0.45898438 C35.54577641 -0.39460675 35.54577641 -0.39460675 37.7578125 1.52709961 C38.16773438 2.01315674 38.57765625 2.49921387 39 3 C39.33 2.01 39.66 1.02 40 0 C40.78375 0.165 41.5675 0.33 42.375 0.5 C45.81917573 1.17913446 45.81917573 1.17913446 49 0 C52.19200721 -0.27756584 54.4070908 -0.24964598 57.375 1 C59.95575901 4.17631878 59.26265854 6.99445732 59 11 C55.72250034 12.07999989 53.62583647 11.87625427 50.3125 11 C48.88499192 10.62618446 47.44843574 10.28204834 46 10 C45.67 10.33 45.34 10.66 45 11 C39.58823529 11.47058824 39.58823529 11.47058824 37.125 9.5 C36.75375 9.005 36.3825 8.51 36 8 C35.67 8.99 35.34 9.98 35 11 C30.0182807 11.75542465 25.53414205 12.38937983 20.625 11 C17.25588836 9.74153071 17.25588836 9.74153071 14.8984375 10.5625 C14.27195313 10.706875 13.64546875 10.85125 13 11 C12.34 10.34 11.68 9.68 11 9 C10.67 9.66 10.34 10.32 10 11 C5.77969347 11.87591268 3.22528851 12.05632213 -1 11 C-0.67 7.37 -0.34 3.74 0 0 Z M24 1 C24 2.65 24 4.3 24 6 C24.33 6 24.66 6 25 6 C25 4.35 25 2.7 25 1 C24.67 1 24.34 1 24 1 Z M4 4 C5 6 5 6 5 6 Z M50 5 C51 7 51 7 51 7 Z M18 7 C19 9 19 9 19 9 Z M24 9 C25 11 25 11 25 11 Z " fill="#4F4F4F" transform="translate(157,31)"/>
<path d="M0 0 C1.65 0 3.3 0 5 0 C5.33 0.99 5.66 1.98 6 3 C6.5053125 2.51144531 7.010625 2.02289063 7.53125 1.51953125 C10.9412376 -0.5793377 13.52476409 -0.36336424 17.5 -0.3125 C18.8096875 -0.30863281 20.119375 -0.30476563 21.46875 -0.30078125 C24.63353135 -0.0312147 26.37043236 0.31627174 29 2 C29.99 1.34 30.98 0.68 32 0 C38.32258065 -0.4516129 38.32258065 -0.4516129 42 2 C42.33 1.34 42.66 0.68 43 0 C45.475 0.495 45.475 0.495 48 1 C48 3.97 48 6.94 48 10 C44.00580447 11.9269594 41.20168331 12.14004933 36.8125 11.6875 C35.76707031 11.58824219 34.72164062 11.48898438 33.64453125 11.38671875 C31 11 31 11 29 10 C28.46375 10.31324219 27.9275 10.62648438 27.375 10.94921875 C23.92773146 12.47440829 20.67091283 12.07518307 17 11.8125 C16.2884375 11.78091797 15.576875 11.74933594 14.84375 11.71679688 C10.6850294 11.44911803 8.03562586 10.93285727 5 8 C5 8.99 5 9.98 5 11 C3.35 11 1.7 11 0 11 C0 7.37 0 3.74 0 0 Z M13 3 C12.34 4.32 11.68 5.64 11 7 C12.32 7.99 13.64 8.98 15 10 C15 8.02 15 6.04 15 4 C14.34 3.67 13.68 3.34 13 3 Z M19 4 C19 4.33 19 4.66 19 5 C20.65 5 22.3 5 24 5 C24 4.67 24 4.34 24 4 C22.35 4 20.7 4 19 4 Z M34 4 C34 4.99 34 5.98 34 7 C35.32 7 36.64 7 38 7 C37.67 6.01 37.34 5.02 37 4 C36.01 4 35.02 4 34 4 Z M28 7 C29 9 29 9 29 9 Z M42 8 C43 11 43 11 43 11 Z M19 9 C19 9.33 19 9.66 19 10 C21.31 10 23.62 10 26 10 C26 9.67 26 9.34 26 9 C23.69 9 21.38 9 19 9 Z " fill="#595959" transform="translate(55,31)"/>
<path d="M0 0 C1.65 0 3.3 0 5 0 C5.33 0.99 5.66 1.98 6 3 C6.33128906 2.51144531 6.66257812 2.02289063 7.00390625 1.51953125 C10.05994879 -0.80688861 13.25782932 -0.3948561 16.9375 -0.3125 C18.01161133 -0.31733398 18.01161133 -0.31733398 19.10742188 -0.32226562 C22.87964503 -0.28380923 25.80141145 -0.09620294 29 2 C29.99 1.34 30.98 0.68 32 0 C35.70544587 -0.19850603 38.47005387 -0.17664871 42 1 C43.65 0.67 45.3 0.34 47 0 C47 3.63 47 7.26 47 11 C40.72896096 12.20083726 34.0813083 12.87884652 28.4375 9.4375 C27.963125 8.963125 27.48875 8.48875 27 8 C26.67 8.33 26.34 8.66 26 9 C23.66702567 9.04092937 21.33294775 9.04241723 19 9 C19 9.66 19 10.32 19 11 C14.38 11.66 9.76 12.32 5 13 C5 12.34 5 11.68 5 11 C3.35 11 1.7 11 0 11 C0 7.37 0 3.74 0 0 Z M13 2 C11.9739266 3.31337396 10.97272675 4.64664105 10 6 C11.32 6.99 12.64 7.98 14 9 C14 6.69 14 4.38 14 2 C13.67 2 13.34 2 13 2 Z M19 4 C23 5 23 5 23 5 Z M34 4 C33.67 4.99 33.34 5.98 33 7 C34.65 6.67 36.3 6.34 38 6 C37.67 5.34 37.34 4.68 37 4 C36.01 4 35.02 4 34 4 Z M5 8 C5.33 8.99 5.66 9.98 6 11 C6 10.01 6 9.02 6 8 C5.67 8 5.34 8 5 8 Z M41 9 C40.67 9.66 40.34 10.32 40 11 C40.66 11 41.32 11 42 11 C41.67 10.34 41.34 9.68 41 9 Z " fill="#535353" transform="translate(109,31)"/>
<path d="M0 0 C1.57510659 3.04520608 0.95412529 5.7906695 0 9 C-3.12706959 10.5635348 -6.57982443 10.39958487 -10 10 C-10.99 9.34 -11.98 8.68 -13 8 C-13 6.68 -13 5.36 -13 4 C-14.32 3.67 -15.64 3.34 -17 3 C-17 5.31 -17 7.62 -17 10 C-18.65 10 -20.3 10 -22 10 C-22 7.69 -22 5.38 -22 3 C-23.65 3 -25.3 3 -27 3 C-27 5.31 -27 7.62 -27 10 C-31.55384615 10.36923077 -31.55384615 10.36923077 -33.8125 8.5 C-34.204375 8.005 -34.59625 7.51 -35 7 C-35.33 7.99 -35.66 8.98 -36 10 C-37.65 10 -39.3 10 -41 10 C-41 6.37 -41 2.74 -41 -1 C-38.125 -1.125 -38.125 -1.125 -35 -1 C-34.34 -0.34 -33.68 0.32 -33 1 C-32.67 0.34 -32.34 -0.32 -32 -1 C-25 -1 -18 -1 -11 -1 C-9.88625 -1.309375 -9.88625 -1.309375 -8.75 -1.625 C-5.24686694 -2.10269996 -3.17593827 -1.51578872 0 0 Z " fill="#616161" transform="translate(202,45)"/>
<path d="M0 0 C2.02301258 0.06300546 4.04576778 0.10429301 6.06933594 0.14501953 C7.98359375 0.20496094 7.98359375 0.20496094 9.93652344 0.26611328 C11.68763428 0.31493652 11.68763428 0.31493652 13.47412109 0.36474609 C16.39746094 0.81298828 16.39746094 0.81298828 18.27783203 2.19091797 C19.89092302 4.52789497 19.81353321 6.03917316 19.39746094 8.81298828 C18.22949219 10.45751953 18.22949219 10.45751953 16.39746094 11.81298828 C13.69824219 12.10595703 13.69824219 12.10595703 10.70996094 12.00048828 C9.71609375 11.97341797 8.72222656 11.94634766 7.69824219 11.91845703 C6.93898437 11.88365234 6.17972656 11.84884766 5.39746094 11.81298828 C5.39746094 9.50298828 5.39746094 7.19298828 5.39746094 4.81298828 C3.74746094 4.81298828 2.09746094 4.81298828 0.39746094 4.81298828 C0.39746094 7.12298828 0.39746094 9.43298828 0.39746094 11.81298828 C-5.54253906 11.81298828 -11.48253906 11.81298828 -17.60253906 11.81298828 C-17.60253906 8.18298828 -17.60253906 4.55298828 -17.60253906 0.81298828 C-11.61153758 -0.38521202 -6.0830177 -0.20039224 0 0 Z M-12.60253906 0.81298828 C-12.60253906 3.12298828 -12.60253906 5.43298828 -12.60253906 7.81298828 C-12.27253906 7.81298828 -11.94253906 7.81298828 -11.60253906 7.81298828 C-11.60253906 5.50298828 -11.60253906 3.19298828 -11.60253906 0.81298828 C-11.93253906 0.81298828 -12.26253906 0.81298828 -12.60253906 0.81298828 Z M-9.60253906 0.81298828 C-8.60253906 4.81298828 -8.60253906 4.81298828 -8.60253906 4.81298828 Z M-10.60253906 6.81298828 C-7.13753906 6.31798828 -7.13753906 6.31798828 -3.60253906 5.81298828 C-3.60253906 5.48298828 -3.60253906 5.15298828 -3.60253906 4.81298828 C-7.55711754 4.46475022 -7.55711754 4.46475022 -10.60253906 6.81298828 Z M10.39746094 4.81298828 C10.72746094 5.80298828 11.05746094 6.79298828 11.39746094 7.81298828 C11.39746094 7.15298828 11.39746094 6.49298828 11.39746094 5.81298828 C12.38746094 6.14298828 13.37746094 6.47298828 14.39746094 6.81298828 C14.39746094 6.15298828 14.39746094 5.49298828 14.39746094 4.81298828 C13.07746094 4.81298828 11.75746094 4.81298828 10.39746094 4.81298828 Z " fill="#5A5A5A" transform="translate(226.6025390625,43.18701171875)"/>
<path d="M0 0 C1.69382812 0.08314453 1.69382812 0.08314453 3.421875 0.16796875 C6.25 0.8125 6.25 0.8125 7.640625 2.86328125 C7.84171875 3.50652344 8.0428125 4.14976563 8.25 4.8125 C8.91 3.4925 9.57 2.1725 10.25 0.8125 C12.23 0.8125 14.21 0.8125 16.25 0.8125 C16.25 4.1125 16.25 7.4125 16.25 10.8125 C19.55 10.8125 22.85 10.8125 26.25 10.8125 C26.25 10.1525 26.25 9.4925 26.25 8.8125 C24.27 8.8125 22.29 8.8125 20.25 8.8125 C20.25 8.4825 20.25 8.1525 20.25 7.8125 C22.23 7.8125 24.21 7.8125 26.25 7.8125 C26.25 7.1525 26.25 6.4925 26.25 5.8125 C23.94 5.8125 21.63 5.8125 19.25 5.8125 C19.58 5.1525 19.91 4.4925 20.25 3.8125 C25.875 3.5625 25.875 3.5625 29.25 5.8125 C31.57108669 6.52062814 33.90377147 7.19274152 36.25 7.8125 C34.19061515 8.32734621 32.14460574 8.83357885 30.0625 9.25 C29.464375 9.435625 28.86625 9.62125 28.25 9.8125 C27.92 10.4725 27.59 11.1325 27.25 11.8125 C23.29 11.8125 19.33 11.8125 15.25 11.8125 C14.92 9.8325 14.59 7.8525 14.25 5.8125 C13.26 7.7925 12.27 9.7725 11.25 11.8125 C8.28 11.8125 5.31 11.8125 2.25 11.8125 C2.25 9.8325 2.25 7.8525 2.25 5.8125 C1.92 7.7925 1.59 9.7725 1.25 11.8125 C-1.0625 12.0625 -1.0625 12.0625 -3.75 11.8125 C-5.5625 9.8125 -5.5625 9.8125 -6.75 7.8125 C-7.08 9.1325 -7.41 10.4525 -7.75 11.8125 C-9.4 11.8125 -11.05 11.8125 -12.75 11.8125 C-12.75 8.1825 -12.75 4.5525 -12.75 0.8125 C-8.38857887 -0.05317601 -4.4371174 -0.27092998 0 0 Z M-4.75 0.8125 C-4.75 3.8125 -4.75 3.8125 -4.75 3.8125 Z M3.25 7.8125 C4.25 9.8125 4.25 9.8125 4.25 9.8125 Z " fill="#585858" transform="translate(73.75,43.1875)"/>
<path d="M0 0 C0.78375 0.165 1.5675 0.33 2.375 0.5 C5.81917573 1.17913446 5.81917573 1.17913446 9 0 C12.19200721 -0.27756584 14.4070908 -0.24964598 17.375 1 C19.95575901 4.17631878 19.26265854 6.99445732 19 11 C15.72250034 12.07999989 13.62583647 11.87625427 10.3125 11 C8.88499192 10.62618446 7.44843574 10.28204834 6 10 C5.67 10.33 5.34 10.66 5 11 C-0.41176471 11.47058824 -0.41176471 11.47058824 -2.875 9.5 C-3.24625 9.005 -3.6175 8.51 -4 8 C-4.33 8.66 -4.66 9.32 -5 10 C-6.32 10 -7.64 10 -9 10 C-9 7.03 -9 4.06 -9 1 C-6.125 0.875 -6.125 0.875 -3 1 C-2.34 1.66 -1.68 2.32 -1 3 C-0.67 2.01 -0.34 1.02 0 0 Z M10 5 C11 7 11 7 11 7 Z " fill="#686868" transform="translate(197,31)"/>
<path d="M0 0 C0.33 0 0.66 0 1 0 C1.33 2.31 1.66 4.62 2 7 C2.33 4.69 2.66 2.38 3 0 C3.33 0 3.66 0 4 0 C4.33 3.3 4.66 6.6 5 10 C6.65 10.66 8.3 11.32 10 12 C10 12.99 10 13.98 10 15 C7.36 14.67 4.72 14.34 2 14 C2 14.99 2 15.98 2 17 C4.97 17 7.94 17 11 17 C11 18.32 11 19.64 11 21 C7.31282562 23.45811625 5.35654296 23.31118164 1 23 C0.01 22.34 -0.98 21.68 -2 21 C-2 20.34 -2 19.68 -2 19 C0.31 19 2.62 19 5 19 C3.865625 18.690625 2.73125 18.38125 1.5625 18.0625 C-2 17 -2 17 -3 16 C-4.34747084 15.76924918 -5.70377565 15.58846937 -7.0625 15.4375 C-8.361875 15.293125 -9.66125 15.14875 -11 15 C-11 15.66 -11 16.32 -11 17 C-8.69 17 -6.38 17 -4 17 C-4 18.65 -4 20.3 -4 22 C-7.3 22 -10.6 22 -14 22 C-14 18.7 -14 15.4 -14 12 C-9.38 11.67 -4.76 11.34 0 11 C-0.33 10.34 -0.66 9.68 -1 9 C-0.91348369 7.45386986 -0.75997364 5.91090613 -0.5625 4.375 C-0.46066406 3.55773438 -0.35882813 2.74046875 -0.25390625 1.8984375 C-0.17011719 1.27195313 -0.08632812 0.64546875 0 0 Z " fill="#4C4C4C" transform="translate(104,32)"/>
<path d="M0 0 C1.65 0 3.3 0 5 0 C5.33 0.99 5.66 1.98 6 3 C6.50273438 2.51144531 7.00546875 2.02289063 7.5234375 1.51953125 C10.85692602 -0.52577953 13.83823574 -0.40317922 17.625 -0.3125 C18.305625 -0.31572266 18.98625 -0.31894531 19.6875 -0.32226562 C24.73257212 -0.26742788 24.73257212 -0.26742788 27 2 C23.37 2 19.74 2 16 2 C16 4.64 16 7.28 16 10 C19.3 10 22.6 10 26 10 C25.67 10.66 25.34 11.32 25 12 C22.41507211 11.91283383 19.83352498 11.80594881 17.25 11.6875 C16.15558594 11.65366211 16.15558594 11.65366211 15.0390625 11.61914062 C10.79429381 11.40690219 8.086142 11.02929201 5 8 C5 8.99 5 9.98 5 11 C3.35 11 1.7 11 0 11 C0 7.37 0 3.74 0 0 Z M13 3 C12.34 4.32 11.68 5.64 11 7 C12.32 7.99 13.64 8.98 15 10 C15 8.02 15 6.04 15 4 C14.34 3.67 13.68 3.34 13 3 Z " fill="#838383" transform="translate(55,31)"/>
<path d="M0 0 C1.65 0 3.3 0 5 0 C5.33 0.99 5.66 1.98 6 3 C6.32613281 2.50886719 6.65226562 2.01773438 6.98828125 1.51171875 C10.11231945 -0.83585947 13.44666118 -0.31491722 17.1875 -0.1875 C17.93708984 -0.17396484 18.68667969 -0.16042969 19.45898438 -0.14648438 C21.30629767 -0.11118539 23.15324066 -0.05737917 25 0 C25 0.33 25 0.66 25 1 C21.7 1 18.4 1 15 1 C15 3.97 15 6.94 15 10 C15.99 10 16.98 10 18 10 C18 9.34 18 8.68 18 8 C22.455 7.505 22.455 7.505 27 7 C26.67 7.66 26.34 8.32 26 9 C23.69 9 21.38 9 19 9 C19 9.66 19 10.32 19 11 C14.38 11.66 9.76 12.32 5 13 C5 12.34 5 11.68 5 11 C3.35 11 1.7 11 0 11 C0 7.37 0 3.74 0 0 Z M13 2 C11.9739266 3.31337396 10.97272675 4.64664105 10 6 C11.32 6.99 12.64 7.98 14 9 C14 6.69 14 4.38 14 2 C13.67 2 13.34 2 13 2 Z M5 8 C5.33 8.99 5.66 9.98 6 11 C6 10.01 6 9.02 6 8 C5.67 8 5.34 8 5 8 Z " fill="#575757" transform="translate(109,31)"/>
<path d="M0 0 C0.99 0 1.98 0 3 0 C3.70386802 2.03608174 4.38742855 4.07919024 5.0625 6.125 C5.44535156 7.26195312 5.82820313 8.39890625 6.22265625 9.5703125 C7.03424784 13.15110354 6.85479227 15.46255777 6 19 C0.77227723 21.25742574 0.77227723 21.25742574 -2.4375 20.1875 C-4.62277332 17.12811735 -4.13321075 15.11654005 -3.5625 11.49609375 C-2.67427555 7.55459776 -1.42045291 3.77894077 0 0 Z " fill="#30BEF6" transform="translate(14,15)"/>
<path d="M0 0 C4.62 0 9.24 0 14 0 C14.1953125 7.6171875 14.1953125 7.6171875 14 10 C13.34 10.66 12.68 11.32 12 12 C9.27130593 11.96712417 6.7033382 11.43602229 4 11 C4 8.69 4 6.38 4 4 C3.34 4.165 2.68 4.33 2 4.5 C-1.73099794 5.12183299 -5.21873378 5.06408926 -9 5 C-9 4.01 -9 3.02 -9 2 C-6.36 2.33 -3.72 2.66 -1 3 C-0.67 2.01 -0.34 1.02 0 0 Z M9 4 C9 6.31 9 8.62 9 11 C9.33 11 9.66 11 10 11 C10 9.02 10 7.04 10 5 C10.99 4.67 11.98 4.34 13 4 C11.68 4 10.36 4 9 4 Z M12 6 C13 10 13 10 13 10 Z " fill="#737373" transform="translate(115,44)"/>
<path d="M0 0 C3.96 0 7.92 0 12 0 C12 3.63 12 7.26 12 11 C8.04 11 4.08 11 0 11 C0 7.37 0 3.74 0 0 Z " fill="#5B5B5B" transform="translate(148,44)"/>
<path d="M0 0 C3.45127516 1.72563758 4.89143118 2.62351235 7.3125 5.375 C7.84488281 5.96023437 8.37726562 6.54546875 8.92578125 7.1484375 C10 9 10 9 9.8828125 10.9921875 C8.80631875 13.4404963 7.4766097 14.88762299 5.5625 16.75 C4.94503906 17.36359375 4.32757812 17.9771875 3.69140625 18.609375 C2 20 2 20 0 20 C0 13.4 0 6.8 0 0 Z " fill="#08B1F7" transform="translate(10,41)"/>
<path d="M0 0 C0 2.97 0 5.94 0 9 C-1.65 9.33 -3.3 9.66 -5 10 C-5.66 9.01 -6.32 8.02 -7 7 C-7.33 8.32 -7.66 9.64 -8 11 C-9.65 11 -11.3 11 -13 11 C-13 7.37 -13 3.74 -13 0 C-8.37078475 -1.0161692 -4.65537393 -0.83796731 0 0 Z M-5 0 C-5 3 -5 3 -5 3 Z " fill="#595959" transform="translate(74,44)"/>
<path d="M0 0 C0 1.65 0 3.3 0 5 C1.65 5 3.3 5 5 5 C5 6.65 5 8.3 5 10 C6.32 10.33 7.64 10.66 9 11 C3.06 11 -2.88 11 -9 11 C-9 7.37 -9 3.74 -9 0 C-3.375 -1.125 -3.375 -1.125 0 0 Z M-4 0 C-4 2.31 -4 4.62 -4 7 C-3.67 7 -3.34 7 -3 7 C-3 4.69 -3 2.38 -3 0 C-3.33 0 -3.66 0 -4 0 Z " fill="#707070" transform="translate(218,44)"/>
<path d="M0 0 C2.8125 -0.25 2.8125 -0.25 6 0 C7.875 2 7.875 2 9 4 C9.33 3.01 9.66 2.02 10 1 C10.99 1 11.98 1 13 1 C13.33 4.3 13.66 7.6 14 11 C9 11 9 11 7.1875 9.5 C6.795625 9.005 6.40375 8.51 6 8 C5.67 8.99 5.34 9.98 5 11 C3.35 11 1.7 11 0 11 C0 7.37 0 3.74 0 0 Z " fill="#555555" transform="translate(161,44)"/>
<path d="M0 0 C0.33 0 0.66 0 1 0 C1.33 2.31 1.66 4.62 2 7 C2.12375 6.401875 2.2475 5.80375 2.375 5.1875 C3 3 3 3 5 0 C7.875 -0.5625 7.875 -0.5625 11 0 C15 4.94736842 15 4.94736842 15 7 C13.35 7 11.7 7 10 7 C10 8.32 10 9.64 10 11 C5.79405774 11.72795155 3.19895255 12.04973814 -1 11 C-0.67 7.37 -0.34 3.74 0 0 Z M4 4 C5 6 5 6 5 6 Z " fill="#474747" transform="translate(157,31)"/>
<path d="M0 0 C1.32 0 2.64 0 4 0 C4 3.63 4 7.26 4 11 C-1.57710648 12.06795656 -6.39436958 11.82622671 -12 11 C-11.67 10.01 -11.34 9.02 -11 8 C-9.02 8 -7.04 8 -5 8 C-4.67 6.35 -4.34 4.7 -4 3 C-3.01 3 -2.02 3 -1 3 C-0.67 2.01 -0.34 1.02 0 0 Z M-2 9 C-2.33 9.66 -2.66 10.32 -3 11 C-2.34 11 -1.68 11 -1 11 C-1.33 10.34 -1.66 9.68 -2 9 Z " fill="#5B5B5B" transform="translate(152,31)"/>
<path d="M0 0 C5.625 -0.25 5.625 -0.25 9 2 C10.32 1.67 11.64 1.34 13 1 C13 3.97 13 6.94 13 10 C8.44615385 10.36923077 8.44615385 10.36923077 6.1875 8.5 C5.795625 8.005 5.40375 7.51 5 7 C4.67 7.66 4.34 8.32 4 9 C2.68 9 1.36 9 0 9 C0 6.03 0 3.06 0 0 Z " fill="#595959" transform="translate(188,32)"/>
<path d="M0 0 C2.31 0.33 4.62 0.66 7 1 C7 4.3 7 7.6 7 11 C13.6 11 20.2 11 27 11 C27 11.33 27 11.66 27 12 C23.2500163 12.02905924 19.50006163 12.04681874 15.75 12.0625 C14.15478516 12.07506836 14.15478516 12.07506836 12.52734375 12.08789062 C11.50253906 12.09111328 10.47773438 12.09433594 9.421875 12.09765625 C8.47924805 12.10289307 7.53662109 12.10812988 6.56542969 12.11352539 C4 12 4 12 0 11 C0 7.37 0 3.74 0 0 Z " fill="#656565" transform="translate(217,31)"/>
<path d="M0 0 C3.96 0 7.92 0 12 0 C12 0.33 12 0.66 12 1 C10.35 1 8.7 1 7 1 C7 3.97 7 6.94 7 10 C8.32 10.33 9.64 10.66 11 11 C7.33694766 11.74926071 4.57644848 12.2380014 1 11 C0.08034178 7.09145257 0 4.17664661 0 0 Z " fill="#949494" transform="translate(181,31)"/>
<path d="M0 0 C0.99 0.33 1.98 0.66 3 1 C3.19517554 2.93674185 3.38087873 4.87444009 3.5625 6.8125 C3.66691406 7.89144531 3.77132813 8.97039063 3.87890625 10.08203125 C4 13 4 13 3 16 C0.03 15.505 0.03 15.505 -3 15 C-3 14.34 -3 13.68 -3 13 C-2.34 13 -1.68 13 -1 13 C-0.93003853 10.48138718 -0.89046659 8.36146024 -1.625 5.9375 C-2.12188971 3.3702365 -1.32679428 2.18530823 0 0 Z " fill="#04B2FA" transform="translate(15,17)"/>
<path d="M0 0 C1.98 0 3.96 0 6 0 C6 3.3 6 6.6 6 10 C9.3 10 12.6 10 16 10 C16 9.34 16 8.68 16 8 C14.02 8 12.04 8 10 8 C10 7.67 10 7.34 10 7 C11.98 7 13.96 7 16 7 C16 6.34 16 5.68 16 5 C13.69 5 11.38 5 9 5 C9.33 4.34 9.66 3.68 10 3 C15.625 2.75 15.625 2.75 19 5 C21.32108669 5.70812814 23.65377147 6.38024152 26 7 C23.94061515 7.51484621 21.89460574 8.02107885 19.8125 8.4375 C18.9153125 8.7159375 18.9153125 8.7159375 18 9 C17.67 9.66 17.34 10.32 17 11 C13.04 11 9.08 11 5 11 C4.67 7.7 4.34 4.4 4 1 C2.68 1.33 1.36 1.66 0 2 C0 1.34 0 0.68 0 0 Z " fill="#939393" transform="translate(84,44)"/>
<path d="M0 0 C1.65 0 3.3 0 5 0 C7.63560713 3.27178817 8 4.72068147 8 9 C7.01 8.67 6.02 8.34 5 8 C4.67 8.99 4.34 9.98 4 11 C2.68 11 1.36 11 0 11 C0 7.37 0 3.74 0 0 Z " fill="#484848" transform="translate(129,44)"/>
<path d="M0 0 C5.28 0 10.56 0 16 0 C16 0.33 16 0.66 16 1 C12.7 1 9.4 1 6 1 C6 3.97 6 6.94 6 10 C6.99 10 7.98 10 9 10 C9 9.34 9 8.68 9 8 C13.455 7.505 13.455 7.505 18 7 C17.67 7.66 17.34 8.32 17 9 C14.69 9 12.38 9 10 9 C10 9.66 10 10.32 10 11 C5.38 11.66 0.76 12.32 -4 13 C-3.67 11.35 -3.34 9.7 -3 8 C-1.35 8.33 0.3 8.66 2 9 C2.33 8.34 2.66 7.68 3 7 C3.33 7.33 3.66 7.66 4 8 C4.33 5.69 4.66 3.38 5 1 C3.35 1 1.7 1 0 1 C0 0.67 0 0.34 0 0 Z " fill="#7F7F7F" transform="translate(118,31)"/>
<path d="M0 0 C3.63 0 7.26 0 11 0 C11.33 1.65 11.66 3.3 12 5 C7.545 5.495 7.545 5.495 3 6 C3 6.66 3 7.32 3 8 C2.01 8 1.02 8 0 8 C0 5.36 0 2.72 0 0 Z M4 2 C8 3 8 3 8 3 Z " fill="#3C3C3C" transform="translate(124,33)"/>
<path d="M0 0 C3.63 0 7.26 0 11 0 C10 4 10 4 9 6 C7.02 6 5.04 6 3 6 C3 6.66 3 7.32 3 8 C2.01 8 1.02 8 0 8 C0 5.36 0 2.72 0 0 Z M3 2 C3 2.33 3 2.66 3 3 C4.65 3 6.3 3 8 3 C8 2.67 8 2.34 8 2 C6.35 2 4.7 2 3 2 Z " fill="#3B3B3B" transform="translate(71,33)"/>
<path d="M0 0 C0.99 0.33 1.98 0.66 3 1 C2.67 1.66 2.34 2.32 2 3 C4.41645782 3.16687448 4.41645782 3.16687448 7 3 C7.66 2.34 8.32 1.68 9 1 C11.35953094 3.35953094 11.49141413 4.77895617 12 8 C6.25 7.125 6.25 7.125 4 6 C4 6.99 4 7.98 4 9 C2.68 9 1.36 9 0 9 C0 6.03 0 3.06 0 0 Z " fill="#49494A" transform="translate(56,33)"/>
<path d="M0 0 C4.29 0 8.58 0 13 0 C13 0.99 13 1.98 13 3 C11.35 3 9.7 3 8 3 C8 5.31 8 7.62 8 10 C7.01 10 6.02 10 5 10 C5 7.69 5 5.38 5 3 C3.35 3 1.7 3 0 3 C0 2.01 0 1.02 0 0 Z " fill="#414141" transform="translate(115,44)"/>
<path d="M0 0 C2.475 0.495 2.475 0.495 5 1 C5 4.63 5 8.26 5 12 C3.35 12 1.7 12 0 12 C0 8.04 0 4.08 0 0 Z " fill="#5E5E5C" transform="translate(55,43)"/>
<path d="M0 0 C2.64 0 5.28 0 8 0 C8.1875 3.375 8.1875 3.375 8 7 C4.91111478 9.05925681 4.29064073 9.2390374 0.8125 9.125 C-1.0746875 9.063125 -1.0746875 9.063125 -3 9 C-3 8.67 -3 8.34 -3 8 C-1.02 7.67 0.96 7.34 3 7 C1.68 6.67 0.36 6.34 -1 6 C-1 4 -1 4 1 2 C0.67 1.34 0.34 0.68 0 0 Z " fill="#6F6F6F" transform="translate(195,46)"/>
<path d="M0 0 C3.96 0 7.92 0 12 0 C12.33 2.31 12.66 4.62 13 7 C12.01 7.66 11.02 8.32 10 9 C9.67 8.34 9.34 7.68 9 7 C6.97536745 6.34786708 6.97536745 6.34786708 5 6 C5 5.34 5 4.68 5 4 C5.66 4 6.32 4 7 4 C7.33 3.34 7.66 2.68 8 2 C5.36 1.67 2.72 1.34 0 1 C0 0.67 0 0.34 0 0 Z " fill="#535353" transform="translate(233,45)"/>
<path d="M0 0 C3.96 0 7.92 0 12 0 C12 0.66 12 1.32 12 2 C10.68 2 9.36 2 8 2 C8 4.31 8 6.62 8 9 C6.68 9 5.36 9 4 9 C3.67 7.02 3.34 5.04 3 3 C2.01 2.67 1.02 2.34 0 2 C0 1.34 0 0.68 0 0 Z " fill="#393939" transform="translate(219,45)"/>
<path d="M0 0 C1.51400391 0.01740234 1.51400391 0.01740234 3.05859375 0.03515625 C4.07050781 0.04417969 5.08242187 0.05320313 6.125 0.0625 C7.29869141 0.07990234 7.29869141 0.07990234 8.49609375 0.09765625 C8.49609375 0.75765625 8.49609375 1.41765625 8.49609375 2.09765625 C7.17609375 2.09765625 5.85609375 2.09765625 4.49609375 2.09765625 C4.49609375 4.40765625 4.49609375 6.71765625 4.49609375 9.09765625 C3.17609375 9.09765625 1.85609375 9.09765625 0.49609375 9.09765625 C0.49609375 6.78765625 0.49609375 4.47765625 0.49609375 2.09765625 C-0.82390625 1.76765625 -2.14390625 1.43765625 -3.50390625 1.09765625 C-2.50390625 0.09765625 -2.50390625 0.09765625 0 0 Z " fill="#3C3C3C" transform="translate(179.50390625,44.90234375)"/>
<path d="M0 0 C1.65 0 3.3 0 5 0 C5.33 0.99 5.66 1.98 6 3 C6.66 2.34 7.32 1.68 8 1 C11.125 0.875 11.125 0.875 14 1 C13.67 1.99 13.34 2.98 13 4 C12.01 4 11.02 4 10 4 C9.34 4.66 8.68 5.32 8 6 C5.375 5.625 5.375 5.625 3 5 C3 4.34 3 3.68 3 3 C2.34 2.67 1.68 2.34 1 2 C1 4.97 1 7.94 1 11 C0.67 11 0.34 11 0 11 C0 7.37 0 3.74 0 0 Z " fill="#6B6B6D" transform="translate(55,31)"/>
<path d="M0 0 C4 2 4 2 6 5 C4.35 5 2.7 5 1 5 C1 8.96 1 12.92 1 17 C1.66 17 2.32 17 3 17 C3 16.34 3 15.68 3 15 C3.99 15.33 4.98 15.66 6 16 C4.71034824 17.37562854 3.37310707 18.70766393 2 20 C1.34 20 0.68 20 0 20 C0 13.4 0 6.8 0 0 Z " fill="#2FBEFA" transform="translate(10,41)"/>
<path d="M0 0 C0.99 0.33 1.98 0.66 3 1 C1.27851338 4.25169694 -0.51868986 6.53013595 -3.25 8.9375 C-4.85322251 10.37264469 -4.85322251 10.37264469 -6 12 C-6.03593158 15.30184928 -6.03593158 15.30184928 -5 18 C-5.99 17.67 -6.98 17.34 -8 17 C-8.33 15.02 -8.66 13.04 -9 11 C-8.01 10.67 -7.02 10.34 -6 10 C-4.77479736 6.99152582 -4.77479736 6.99152582 -4 4 C-3.34 4 -2.68 4 -2 4 C-1.34 2.68 -0.68 1.36 0 0 Z " fill="#24BDFB" transform="translate(37,28)"/>
<path d="M0 0 C0.33 0 0.66 0 1 0 C1.33 2.31 1.66 4.62 2 7 C2.33 5.68 2.66 4.36 3 3 C3.99 3 4.98 3 6 3 C6 5.97 6 8.94 6 12 C3.69 12 1.38 12 -1 12 C-0.67 8.04 -0.34 4.08 0 0 Z M4 4 C5 6 5 6 5 6 Z " fill="#8A8A8A" transform="translate(157,31)"/>
<path d="M0 0 C1.98 0 3.96 0 6 0 C5.34 2.97 4.68 5.94 4 9 C2.68 9 1.36 9 0 9 C0 6.03 0 3.06 0 0 Z " fill="#3E3E3E" transform="translate(188,32)"/>
<path d="M0 0 C0.66 0.33 1.32 0.66 2 1 C2 1.66 2 2.32 2 3 C-1.13498292 4.85776765 -3.37471432 5.20140476 -7 5 C-7.33 4.34 -7.66 3.68 -8 3 C-8.66 2.67 -9.32 2.34 -10 2 C-6.33134759 -0.44576827 -4.32799657 -0.23607254 0 0 Z " fill="#5C5C5C" transform="translate(148,31)"/>
<path d="M0 0 C0.33 0 0.66 0 1 0 C1.33 2.31 1.66 4.62 2 7 C2.33 4.69 2.66 2.38 3 0 C3.33 0 3.66 0 4 0 C4.33 3.3 4.66 6.6 5 10 C7.475 10.99 7.475 10.99 10 12 C10 12.33 10 12.66 10 13 C5.55129785 13.39253254 2.85756507 12.15305957 -1 10 C-0.67 6.7 -0.34 3.4 0 0 Z " fill="#7B7B7B" transform="translate(104,32)"/>
<path d="M0 0 C0 0.66 0 1.32 0 2 C-2.64 1.67 -5.28 1.34 -8 1 C-8 1.99 -8 2.98 -8 4 C-6.02 4 -4.04 4 -2 4 C-2 4.33 -2 4.66 -2 5 C-4.97 5 -7.94 5 -11 5 C-11.33 4.34 -11.66 3.68 -12 3 C-8.61326653 -2.08010021 -5.54065966 -0.94086673 0 0 Z " fill="#393939" transform="translate(114,45)"/>
<path d="M0 0 C0.66 0.33 1.32 0.66 2 1 C2.33 1.99 2.66 2.98 3 4 C5.97 4.495 5.97 4.495 9 5 C8.67 5.66 8.34 6.32 8 7 C5.03 7 2.06 7 -1 7 C-1.04254356 5.00045254 -1.04080783 2.99958364 -1 1 C-0.67 0.67 -0.34 0.34 0 0 Z " fill="#3A3A3A" transform="translate(204,34)"/>
<path d="M0 0 C0.99 0 1.98 0 3 0 C3 2.97 3 5.94 3 9 C1.68 9 0.36 9 -1 9 C-0.67 6.03 -0.34 3.06 0 0 Z " fill="#3D3D3D" transform="translate(99,33)"/>
<path d="M0 0 C0.99 0.33 1.98 0.66 3 1 C3.33 4.3 3.66 7.6 4 11 C2 10 2 10 1 7 C0.01 7 -0.98 7 -2 7 C-1.125 1.125 -1.125 1.125 0 0 Z " fill="#12AEF0" transform="translate(15,17)"/>
<path d="M0 0 C1.65 0 3.3 0 5 0 C4.34 2.97 3.68 5.94 3 9 C2.01 9 1.02 9 0 9 C0 6.03 0 3.06 0 0 Z " fill="#373637" transform="translate(162,45)"/>
<path d="M0 0 C1.98 0 3.96 0 6 0 C6.6875 1.8125 6.6875 1.8125 7 4 C5.5625 5.75 5.5625 5.75 4 7 C2 6 2 6 0.875 2.9375 C0.58625 1.968125 0.2975 0.99875 0 0 Z " fill="#5E5E5E" transform="translate(162,31)"/>
<path d="M0 0 C1.32 0 2.64 0 4 0 C4 2.64 4 5.28 4 8 C2.68 8 1.36 8 0 8 C0 5.36 0 2.72 0 0 Z " fill="#3B3B3B" transform="translate(152,33)"/>
<path d="M0 0 C1.65 0 3.3 0 5 0 C5 0.66 5 1.32 5 2 C4.34 2 3.68 2 3 2 C3 4.31 3 6.62 3 9 C2.01 9 1.02 9 0 9 C0 6.03 0 3.06 0 0 Z " fill="#373735" transform="translate(62,45)"/>
<path d="M0 0 C0.99 0 1.98 0 3 0 C3 2.64 3 5.28 3 8 C1.68 8 0.36 8 -1 8 C-1.04241723 5.66705225 -1.04092937 3.33297433 -1 1 C-0.67 0.67 -0.34 0.34 0 0 Z " fill="#3C3C3C" transform="translate(198,33)"/>
<path d="M0 0 C3.96 0 7.92 0 12 0 C12.33 1.32 12.66 2.64 13 4 C12.34 3.67 11.68 3.34 11 3 C8.95944995 2.92934383 6.91665743 2.91578024 4.875 2.9375 C3.77929688 2.94652344 2.68359375 2.95554687 1.5546875 2.96484375 C0.29011719 2.98224609 0.29011719 2.98224609 -1 3 C-0.67 2.01 -0.34 1.02 0 0 Z " fill="#40BFF7" transform="translate(30,23)"/>
<path d="M0 0 C0.33 0 0.66 0 1 0 C1.05395478 1.62463842 1.09277195 3.24978541 1.125 4.875 C1.14820313 5.77992187 1.17140625 6.68484375 1.1953125 7.6171875 C1 10 1 10 -1 12 C-1.99 11.67 -2.98 11.34 -4 11 C-3.67 9.02 -3.34 7.04 -3 5 C-2.01 5 -1.02 5 0 5 C0 3.35 0 1.7 0 0 Z M-1 6 C0 10 0 10 0 10 Z " fill="#BCBCBC" transform="translate(128,44)"/>
<path d="M0 0 C1.61949011 2.57213134 2.04408751 3.67669159 1.625 6.75 C1.41875 7.4925 1.2125 8.235 1 9 C0.01 9 -0.98 9 -2 9 C-2 6.36 -2 3.72 -2 1 C-1.34 0.67 -0.68 0.34 0 0 Z " fill="#353535" transform="translate(112,32)"/>
<path d="M0 0 C0 4.26861765 -1.65525557 6.48288335 -4 10 C-4.99 10 -5.98 10 -7 10 C-6.42424336 6.64749299 -5.40693737 5.06181371 -2.9375 2.75 C-2.38964844 2.22921875 -1.84179688 1.7084375 -1.27734375 1.171875 C-0.64505859 0.59179688 -0.64505859 0.59179688 0 0 Z " fill="#29B8F3" transform="translate(26,28)"/>
<path d="M0 0 C0 2.97 0 5.94 0 9 C-0.99 9 -1.98 9 -3 9 C-3 6.36 -3 3.72 -3 1 C-1 0 -1 0 0 0 Z " fill="#3C3C3C" transform="translate(221,32)"/>
<path d="M0 0 C0.66 0.66 1.32 1.32 2 2 C0.515 4.475 0.515 4.475 -1 7 C-0.34 7.33 0.32 7.66 1 8 C-0.32 8.33 -1.64 8.66 -3 9 C-3.33 8.34 -3.66 7.68 -4 7 C-3.34 7 -2.68 7 -2 7 C-2.33 5.02 -2.66 3.04 -3 1 C-2.01 0.67 -1.02 0.34 0 0 Z " fill="#6B6B6B" transform="translate(139,46)"/>
<path d="M0 0 C0.99 0 1.98 0 3 0 C3 2.64 3 5.28 3 8 C2.01 8 1.02 8 0 8 C0 5.36 0 2.72 0 0 Z " fill="#353535" transform="translate(183,33)"/>
<path d="M0 0 C0.99 0 1.98 0 3 0 C3 1.32 3 2.64 3 4 C-0.81756824 5.37432457 -4.07255329 4.67975039 -8 4 C-8 3.67 -8 3.34 -8 3 C-6.865625 2.87625 -5.73125 2.7525 -4.5625 2.625 C-3.386875 2.41875 -2.21125 2.2125 -1 2 C-0.67 1.34 -0.34 0.68 0 0 Z " fill="#575757" transform="translate(213,38)"/>
<path d="M0 0 C0.66 0.99 1.32 1.98 2 3 C1.34 3 0.68 3 0 3 C-1.01111093 6.04913228 -1.01111093 6.04913228 0 9 C-1.9375 8.6875 -1.9375 8.6875 -4 8 C-4.33 7.01 -4.66 6.02 -5 5 C-4.01 4.34 -3.02 3.68 -2 3 C-1.34 2.01 -0.68 1.02 0 0 Z " fill="#595959" transform="translate(173,33)"/>
<path d="M0 0 C0.33 0 0.66 0 1 0 C1.33 2.64 1.66 5.28 2 8 C-1.3 7.67 -4.6 7.34 -8 7 C-8 6.67 -8 6.34 -8 6 C-6.02 6 -4.04 6 -2 6 C-1.34 4.02 -0.68 2.04 0 0 Z " fill="#555555" transform="translate(82,33)"/>
<path d="M0 0 C1.9375 0.3125 1.9375 0.3125 4 1 C4.33 1.99 4.66 2.98 5 4 C5.99 4.66 6.98 5.32 8 6 C6.35 5.67 4.7 5.34 3 5 C3 4.34 3 3.68 3 3 C2.34 3 1.68 3 1 3 C0.67 4.32 0.34 5.64 0 7 C-1.125 2.25 -1.125 2.25 0 0 Z " fill="#707070" transform="translate(84,33)"/>
<path d="M0 0 C3.63 0 7.26 0 11 0 C10.67 0.99 10.34 1.98 10 3 C6.7 2.34 3.4 1.68 0 1 C0 0.67 0 0.34 0 0 Z " fill="#363636" transform="translate(233,45)"/>
<path d="M0 0 C1.32 0 2.64 0 4 0 C4 2.31 4 4.62 4 7 C3.34 7 2.68 7 2 7 C1.34 4.69 0.68 2.38 0 0 Z " fill="#454545" transform="translate(210,44)"/>
<path d="M0 0 C0.99 0.33 1.98 0.66 3 1 C3 3.31 3 5.62 3 8 C2.01 8 1.02 8 0 8 C0 5.36 0 2.72 0 0 Z " fill="#363637" transform="translate(56,33)"/>
<path d="M0 0 C0.33 0 0.66 0 1 0 C1 6.27 1 12.54 1 19 C0.67 19 0.34 19 0 19 C0 12.73 0 6.46 0 0 Z " fill="#2596D6" transform="translate(8,42)"/>
<path d="M0 0 C0.66 0 1.32 0 2 0 C2 2.31 2 4.62 2 7 C1.01 7 0.02 7 -1 7 C-0.67 4.69 -0.34 2.38 0 0 Z " fill="#393939" transform="translate(121,47)"/>
<path d="M0 0 C0 0.33 0 0.66 0 1 C-5.61 1 -11.22 1 -17 1 C-17 0.67 -17 0.34 -17 0 C-15.10507254 -0.19644384 -13.20899097 -0.38177288 -11.3125 -0.5625 C-9.72888672 -0.71912109 -9.72888672 -0.71912109 -8.11328125 -0.87890625 C-5.18573914 -0.99277552 -2.82868856 -0.70848415 0 0 Z " fill="#B7B7B7" transform="translate(165,56)"/>
<path d="M0 0 C0.99 0 1.98 0 3 0 C3 1.98 3 3.96 3 6 C2.01 6 1.02 6 0 6 C0 4.02 0 2.04 0 0 Z " fill="#8F8F8F" transform="translate(228,49)"/>
<path d="M0 0 C0.99 0 1.98 0 3 0 C3 1.98 3 3.96 3 6 C2.01 6 1.02 6 0 6 C0 4.02 0 2.04 0 0 Z " fill="#6A6A6A" transform="translate(176,49)"/>
<path d="M0 0 C0.66 0.33 1.32 0.66 2 1 C2 2.65 2 4.3 2 6 C0.68 5.67 -0.64 5.34 -2 5 C-1.34 3.35 -0.68 1.7 0 0 Z " fill="#06B4FE" transform="translate(39,54)"/>
<path d="M0 0 C0.66 0.33 1.32 0.66 2 1 C1.6875 2.875 1.6875 2.875 1 5 C0.01 5.66 -0.98 6.32 -2 7 C-1.125 1.125 -1.125 1.125 0 0 Z " fill="#36C3F6" transform="translate(18,49)"/>
<path d="M0 0 C0.33 1.32 0.66 2.64 1 4 C2.32 4.33 3.64 4.66 5 5 C-0.41538462 6.23076923 -0.41538462 6.23076923 -3.375 5.0625 C-3.91125 4.711875 -4.4475 4.36125 -5 4 C-4.0409375 3.8453125 -4.0409375 3.8453125 -3.0625 3.6875 C-2.381875 3.460625 -1.70125 3.23375 -1 3 C-0.67 2.01 -0.34 1.02 0 0 Z " fill="#737373" transform="translate(187,37)"/>
<path d="M0 0 C1.98 0 3.96 0 6 0 C6 0.99 6 1.98 6 3 C5.01 3.33 4.02 3.66 3 4 C3 3.34 3 2.68 3 2 C2.01 2.33 1.02 2.66 0 3 C0 2.01 0 1.02 0 0 Z " fill="#4A4A4A" transform="translate(85,32)"/>
<path d="M0 0 C5.28 0 10.56 0 16 0 C16 0.33 16 0.66 16 1 C10.72 1 5.44 1 0 1 C0 0.67 0 0.34 0 0 Z " fill="#A8A8A8" transform="translate(118,29)"/>
<path d="M0 0 C1.32 0.33 2.64 0.66 4 1 C3.67 4.63 3.34 8.26 3 12 C2.67 12 2.34 12 2 12 C2 8.37 2 4.74 2 1 C1.34 0.67 0.68 0.34 0 0 Z " fill="#8A8A8A" transform="translate(205,43)"/>
<path d="M0 0 C4.95 0 9.9 0 15 0 C15 0.33 15 0.66 15 1 C10.05 1 5.1 1 0 1 C0 0.67 0 0.34 0 0 Z " fill="#A8A8A8" transform="translate(65,29)"/>
<path d="M0 0 C3.96 0 7.92 0 12 0 C12 0.33 12 0.66 12 1 C8.04 1 4.08 1 0 1 C0 0.67 0 0.34 0 0 Z " fill="#AFAFAF" transform="translate(209,56)"/>
<path d="M0 0 C3.96 0 7.92 0 12 0 C12 0.33 12 0.66 12 1 C8.04 1 4.08 1 0 1 C0 0.67 0 0.34 0 0 Z " fill="#B7B7B7" transform="translate(89,56)"/>
<path d="M0 0 C0.99 0.33 1.98 0.66 3 1 C3 2.32 3 3.64 3 5 C2.01 5.33 1.02 5.66 0 6 C0 4.02 0 2.04 0 0 Z " fill="#878787" transform="translate(186,49)"/>
<path d="M0 0 C1.98 0 3.96 0 6 0 C5.67 0.66 5.34 1.32 5 2 C3.02 2 1.04 2 -1 2 C-0.67 1.34 -0.34 0.68 0 0 Z " fill="#7A7A7A" transform="translate(129,41)"/>
<path d="M0 0 C3.96 0 7.92 0 12 0 C12 0.33 12 0.66 12 1 C8.04 1 4.08 1 0 1 C0 0.67 0 0.34 0 0 Z " fill="#5EC2EF" transform="translate(30,21)"/>
<path d="M0 0 C3.63 0 7.26 0 11 0 C11 0.33 11 0.66 11 1 C7.37 1 3.74 1 0 1 C0 0.67 0 0.34 0 0 Z " fill="#A2A2A2" transform="translate(232,56)"/>
<path d="M0 0 C0.33 0 0.66 0 1 0 C1 3.3 1 6.6 1 10 C0.67 10 0.34 10 0 10 C0 6.7 0 3.4 0 0 Z " fill="#898989" transform="translate(53,44)"/>
<path d="M0 0 C0.33 0 0.66 0 1 0 C1 3.3 1 6.6 1 10 C0.67 10 0.34 10 0 10 C0 6.7 0 3.4 0 0 Z " fill="#89898A" transform="translate(53,32)"/>
<path d="M0 0 C0.66 0 1.32 0 2 0 C2 1.98 2 3.96 2 6 C1.34 5.67 0.68 5.34 0 5 C0 3.35 0 1.7 0 0 Z " fill="#787878" transform="translate(116,49)"/>
<path d="M0 0 C2.64 0 5.28 0 8 0 C8 0.33 8 0.66 8 1 C5.36 1 2.72 1 0 1 C0 0.67 0 0.34 0 0 Z " fill="#808080" transform="translate(192,56)"/>
<path d="M0 0 C0.99 0.99 1.98 1.98 3 3 C1.68 3.33 0.36 3.66 -1 4 C-0.67 2.68 -0.34 1.36 0 0 Z " fill="#595958" transform="translate(61,40)"/>
<path d="M0 0 C0 3 0 3 -2 6 C-1.125 1.125 -1.125 1.125 0 0 Z " fill="#3D92D4" transform="translate(33,38)"/>
<path d="M0 0 C2.31 0 4.62 0 7 0 C7 0.33 7 0.66 7 1 C4.69 1 2.38 1 0 1 C0 0.67 0 0.34 0 0 Z " fill="#8C8C8C" transform="translate(105,56)"/>
<path d="M0 0 C2.31 0 4.62 0 7 0 C7 0.33 7 0.66 7 1 C4.69 1 2.38 1 0 1 C0 0.67 0 0.34 0 0 Z " fill="#7C7C7C" transform="translate(206,29)"/>
<path d="M0 0 C2.31 0 4.62 0 7 0 C7 0.33 7 0.66 7 1 C4.69 1 2.38 1 0 1 C0 0.67 0 0.34 0 0 Z " fill="#797979" transform="translate(141,29)"/>
<path d="M0 0 C2.31 0 4.62 0 7 0 C7 0.33 7 0.66 7 1 C4.69 1 2.38 1 0 1 C0 0.67 0 0.34 0 0 Z " fill="#747474" transform="translate(87,29)"/>
<path d="M0 0 C1.485 0.99 1.485 0.99 3 2 C2.67 2.66 2.34 3.32 2 4 C1.34 2.68 0.68 1.36 0 0 Z " fill="#3B8BC9" transform="translate(23,54)"/>
<path d="M0 0 C0.33 1.32 0.66 2.64 1 4 C0.34 4 -0.32 4 -1 4 C-0.67 2.68 -0.34 1.36 0 0 Z " fill="#656565" transform="translate(87,51)"/>
<path d="M0 0 C0.33 0 0.66 0 1 0 C1 1.98 1 3.96 1 6 C0.67 6 0.34 6 0 6 C0 4.02 0 2.04 0 0 Z " fill="#414141" transform="translate(247,46)"/>
<path d="M0 0 C0.66 0.33 1.32 0.66 2 1 C1.01 1.66 0.02 2.32 -1 3 C-1.33 2.34 -1.66 1.68 -2 1 C-1.34 0.67 -0.68 0.34 0 0 Z " fill="#3595DF" transform="translate(16,36)"/>
<path d="M0 0 C0.33 0 0.66 0 1 0 C1 1.98 1 3.96 1 6 C0.67 6 0.34 6 0 6 C0 4.02 0 2.04 0 0 Z " fill="#49ACE1" transform="translate(8,27)"/>
<path d="M0 0 C0 0.99 0 1.98 0 3 C-0.99 3.495 -0.99 3.495 -2 4 C-1.34 2.68 -0.68 1.36 0 0 Z " fill="#4194CF" transform="translate(26,25)"/>
<path d="M0 0 C1.65 0 3.3 0 5 0 C5 0.33 5 0.66 5 1 C3.35 1 1.7 1 0 1 C0 0.67 0 0.34 0 0 Z " fill="#969696" transform="translate(170,56)"/>
<path d="M0 0 C1.65 0 3.3 0 5 0 C5 0.33 5 0.66 5 1 C3.35 1 1.7 1 0 1 C0 0.67 0 0.34 0 0 Z " fill="#898989" transform="translate(80,56)"/>
<path d="M0 0 C1.65 0 3.3 0 5 0 C5 0.33 5 0.66 5 1 C3.35 1 1.7 1 0 1 C0 0.67 0 0.34 0 0 Z " fill="#999999" transform="translate(70,56)"/>
<path d="M0 0 C1.65 0 3.3 0 5 0 C5 0.33 5 0.66 5 1 C3.35 1 1.7 1 0 1 C0 0.67 0 0.34 0 0 Z " fill="#A6A6A5" transform="translate(61,56)"/>
<path d="M0 0 C1.65 0 3.3 0 5 0 C5 0.33 5 0.66 5 1 C3.35 1 1.7 1 0 1 C0 0.67 0 0.34 0 0 Z " fill="#B6B6B6" transform="translate(55,56)"/>
<path d="M0 0 C0.66 0.66 1.32 1.32 2 2 C1.01 2 0.02 2 -1 2 C-0.67 1.34 -0.34 0.68 0 0 Z " fill="#3A3A3A" transform="translate(193,40)"/>
<path d="M0 0 C1.65 0 3.3 0 5 0 C5 0.33 5 0.66 5 1 C3.35 1 1.7 1 0 1 C0 0.67 0 0.34 0 0 Z " fill="#A8A8A8" transform="translate(188,29)"/>
<path d="M0 0 C1.65 0 3.3 0 5 0 C5 0.33 5 0.66 5 1 C3.35 1 1.7 1 0 1 C0 0.67 0 0.34 0 0 Z " fill="#9B9B9B" transform="translate(175,29)"/>
<path d="M0 0 C1.65 0 3.3 0 5 0 C5 0.33 5 0.66 5 1 C3.35 1 1.7 1 0 1 C0 0.67 0 0.34 0 0 Z " fill="#A4A4A4" transform="translate(163,29)"/>
<path d="M0 0 C4 1 4 1 4 1 Z " fill="#A9A9A9" transform="translate(223,56)"/>
<path d="M0 0 C4 1 4 1 4 1 Z " fill="#AFAFAF" transform="translate(180,56)"/>
<path d="M0 0 C4 1 4 1 4 1 Z " fill="#A4A4A4" transform="translate(142,56)"/>
<path d="M0 0 C4 1 4 1 4 1 Z " fill="#A5A5A5" transform="translate(129,56)"/>
<path d="M0 0 C4 1 4 1 4 1 Z " fill="#B0B0B0" transform="translate(119,56)"/>
<path d="M0 0 C1.485 0.99 1.485 0.99 3 2 C2.01 2 1.02 2 0 2 C0 1.34 0 0.68 0 0 Z " fill="#878787" transform="translate(102,54)"/>
<path d="M0 0 C0.99 0.495 0.99 0.495 2 1 C1.67 1.66 1.34 2.32 1 3 C0.67 2.01 0.34 1.02 0 0 Z " fill="#3E91DE" transform="translate(40,52)"/>
<path d="M0 0 C1 4 1 4 1 4 Z " fill="#7B7B7B" transform="translate(204,49)"/>
<path d="M0 0 C0 3 0 3 0 3 Z " fill="#B1B0B1" transform="translate(205,45)"/>
<path d="M0 0 C0.99 0.495 0.99 0.495 2 1 C1.67 1.66 1.34 2.32 1 3 C0.67 2.01 0.34 1.02 0 0 Z " fill="#3B3B3B" transform="translate(81,44)"/>
<path d="M0 0 C0.66 0.66 1.32 1.32 2 2 C1.01 1.67 0.02 1.34 -1 1 C-0.67 0.67 -0.34 0.34 0 0 Z " fill="#1F1F1F" transform="translate(174,41)"/>
<path d="M0 0 C0.99 0.495 0.99 0.495 2 1 C1.67 1.66 1.34 2.32 1 3 C0.67 2.01 0.34 1.02 0 0 Z " fill="#1A191B" transform="translate(67,36)"/>
<path d="M0 0 C4 1 4 1 4 1 Z " fill="#A1A0A1" transform="translate(217,29)"/>
<path d="M0 0 C4 1 4 1 4 1 Z " fill="#9F9F9F" transform="translate(197,29)"/>
<path d="M0 0 C4 1 4 1 4 1 Z " fill="#A5A5A5" transform="translate(182,29)"/>
<path d="M0 0 C4 1 4 1 4 1 Z " fill="#939393" transform="translate(152,29)"/>
<path d="M0 0 C4 1 4 1 4 1 Z " fill="#989898" transform="translate(109,29)"/>
<path d="M0 0 C4 1 4 1 4 1 Z " fill="#A4A4A4" transform="translate(98,29)"/>
<path d="M0 0 C4 1 4 1 4 1 Z " fill="#A6A6A8" transform="translate(56,29)"/>
<path d="M0 0 C0 3 0 3 0 3 Z " fill="#3395CB" transform="translate(42,28)"/>
<path d="M0 0 C0.66 0.66 1.32 1.32 2 2 C1.01 2.495 1.01 2.495 0 3 C0 2.01 0 1.02 0 0 Z " fill="#43B8E9" transform="translate(22,28)"/>
<path d="M0 0 C0.99 0.33 1.98 0.66 3 1 C2.01 1.33 1.02 1.66 0 2 C0 1.34 0 0.68 0 0 Z " fill="#FEFEFE" transform="translate(0,0)"/>
<path d="M0 0 C3 1 3 1 3 1 Z " fill="#4AA2CC" transform="translate(42,63)"/>
<path d="" fill="#57B5DA" transform="translate(0,0)"/>
<path d="M0 0 C3 1 3 1 3 1 Z " fill="#959595" transform="translate(136,56)"/>
<path d="M0 0 C3 1 3 1 3 1 Z " fill="#7D7D7D" transform="translate(202,42)"/>
<path d="M0 0 C0.33 0.66 0.66 1.32 1 2 C0.34 1.67 -0.32 1.34 -1 1 C-0.67 0.67 -0.34 0.34 0 0 Z " fill="#6E6E6E" transform="translate(136,39)"/>
<path d="M0 0 C3 1 3 1 3 1 Z " fill="#3A3A3A" transform="translate(143,36)"/>
<path d="M0 0 C0.66 0 1.32 0 2 0 C1.67 0.66 1.34 1.32 1 2 C0.67 1.34 0.34 0.68 0 0 Z " fill="#3C3C3C" transform="translate(120,36)"/>
<path d="M0 0 C3 1 3 1 3 1 Z " fill="#343434" transform="translate(89,36)"/>
<path d="M0 0 C0.66 0 1.32 0 2 0 C1.67 0.66 1.34 1.32 1 2 C0.67 1.34 0.34 0.68 0 0 Z " fill="#454545" transform="translate(214,31)"/>
<path d="M0 0 C0.66 0 1.32 0 2 0 C1.67 0.66 1.34 1.32 1 2 C0.67 1.34 0.34 0.68 0 0 Z " fill="#454545" transform="translate(194,31)"/>
<path d="" fill="#1D74D9" transform="translate(0,0)"/>
<path d="" fill="#5DC6E8" transform="translate(0,0)"/>
<path d="" fill="#3B94D8" transform="translate(0,0)"/>
<path d="" fill="#3CB4E7" transform="translate(0,0)"/>
<path d="" fill="#50BEF1" transform="translate(0,0)"/>
<path d="" fill="#33A2DB" transform="translate(0,0)"/>
<path d="" fill="#43ADE7" transform="translate(0,0)"/>
<path d="" fill="#37AAE0" transform="translate(0,0)"/>
<path d="M0 0 C3 1 3 1 3 1 Z " fill="#5EB2DA" transform="translate(14,13)"/>
<path d="M0 0 C2 1 2 1 2 1 Z " fill="#FDFDFD" transform="translate(254,80)"/>
<path d="" fill="#FFFEFF" transform="translate(0,0)"/>
<path d="M0 0 C2 1 2 1 2 1 Z " fill="#8CC3D9" transform="translate(31,63)"/>
<path d="M0 0 C2 1 2 1 2 1 Z " fill="#72BCE4" transform="translate(10,62)"/>
<path d="M0 0 C2 1 2 1 2 1 Z " fill="#434343" transform="translate(200,55)"/>
<path d="M0 0 C2 1 2 1 2 1 Z " fill="#414141" transform="translate(190,55)"/>
<path d="M0 0 C2 1 2 1 2 1 Z " fill="#262626" transform="translate(112,55)"/>
<path d="M0 0 C2 1 2 1 2 1 Z " fill="#4F4F4F" transform="translate(244,54)"/>
<path d="" fill="#545454" transform="translate(0,0)"/>
<path d="M0 0 C2 1 2 1 2 1 Z " fill="#010101" transform="translate(189,43)"/>
<path d="" fill="#6D6D6D" transform="translate(0,0)"/>
<path d="M0 0 C2 1 2 1 2 1 Z " fill="#3F3F3F" transform="translate(138,42)"/>
<path d="M0 0 C2 1 2 1 2 1 Z " fill="#1FA3E3" transform="translate(12,40)"/>
<path d="M0 0 C2 1 2 1 2 1 Z " fill="#65C3EC" transform="translate(10,39)"/>
<path d="M0 0 C2 1 2 1 2 1 Z " fill="#32B0EB" transform="translate(12,36)"/>
<path d="" fill="#3C3C3C" transform="translate(0,0)"/>
<path d="M0 0 C2 1 2 1 2 1 Z " fill="#767676" transform="translate(202,31)"/>
<path d="M0 0 C2 1 2 1 2 1 Z " fill="#313131" transform="translate(204,30)"/>
<path d="M0 0 C2 1 2 1 2 1 Z " fill="#565656" transform="translate(148,30)"/>
<path d="M0 0 C2 1 2 1 2 1 Z " fill="#1F1F1F" transform="translate(139,30)"/>
<path d="M0 0 C2 1 2 1 2 1 Z " fill="#2B2B2B" transform="translate(134,30)"/>
<path d="M0 0 C2 1 2 1 2 1 Z " fill="#2E2E2E" transform="translate(94,30)"/>
<path d="M0 0 C2 1 2 1 2 1 Z " fill="#383838" transform="translate(85,30)"/>
<path d="M0 0 C2 1 2 1 2 1 Z " fill="#262626" transform="translate(80,30)"/>
<path d="M0 0 C2 1 2 1 2 1 Z " fill="#5A5A5C" transform="translate(63,30)"/>
<path d="" fill="#3E82A0" transform="translate(0,0)"/>
<path d="M0 0 C2 1 2 1 2 1 Z " fill="#D1D1D1" transform="translate(254,0)"/>
<path d="" fill="#A3D0CF" transform="translate(0,0)"/>
<path d="" fill="#73C1CF" transform="translate(0,0)"/>
<path d="" fill="#229EDB" transform="translate(0,0)"/>
<path d="" fill="#3DB3E0" transform="translate(0,0)"/>
<path d="" fill="#3570C0" transform="translate(0,0)"/>
<path d="" fill="#5DBCF7" transform="translate(0,0)"/>
<path d="" fill="#48B5D0" transform="translate(0,0)"/>
<path d="" fill="#002181" transform="translate(0,0)"/>
<path d="" fill="#61C2E3" transform="translate(0,0)"/>
<path d="" fill="#219BE6" transform="translate(0,0)"/>
<path d="" fill="#50AFCF" transform="translate(0,0)"/>
<path d="" fill="#71C6EE" transform="translate(0,0)"/>
<path d="" fill="#1EA0EF" transform="translate(0,0)"/>
<path d="" fill="#3BADE8" transform="translate(0,0)"/>
<path d="" fill="#1D9FE5" transform="translate(0,0)"/>
<path d="" fill="#2090C5" transform="translate(0,0)"/>
<path d="" fill="#10A6E1" transform="translate(0,0)"/>
<path d="" fill="#444444" transform="translate(0,0)"/>
<path d="" fill="#D7D7D7" transform="translate(0,0)"/>
<path d="" fill="#DBDBDB" transform="translate(0,0)"/>
<path d="" fill="#7F7F7F" transform="translate(0,0)"/>
<path d="" fill="#8C8C8C" transform="translate(0,0)"/>
<path d="" fill="#2A2A2A" transform="translate(0,0)"/>
<path d="" fill="#818181" transform="translate(0,0)"/>
<path d="" fill="#909090" transform="translate(0,0)"/>
<path d="" fill="#9C9C9C" transform="translate(0,0)"/>
<path d="" fill="#9E9E9E" transform="translate(0,0)"/>
<path d="" fill="#7E7E7E" transform="translate(0,0)"/>
<path d="" fill="#383838" transform="translate(0,0)"/>
<path d="" fill="#C9C9C9" transform="translate(0,0)"/>
<path d="" fill="#F1F1F1" transform="translate(0,0)"/>
<path d="" fill="#0B9EDC" transform="translate(0,0)"/>
<path d="" fill="#47D0F4" transform="translate(0,0)"/>
<path d="" fill="#868686" transform="translate(0,0)"/>
<path d="" fill="#565656" transform="translate(0,0)"/>
<path d="" fill="#3A3A3A" transform="translate(0,0)"/>
<path d="" fill="#6A6A6A" transform="translate(0,0)"/>
<path d="" fill="#6C6C6C" transform="translate(0,0)"/>
<path d="" fill="#000000" transform="translate(0,0)"/>
<path d="" fill="#56BFDE" transform="translate(0,0)"/>
<path d="" fill="#999999" transform="translate(0,0)"/>
<path d="" fill="#5A5A5A" transform="translate(0,0)"/>
<path d="" fill="#707070" transform="translate(0,0)"/>
<path d="" fill="#53AEF4" transform="translate(0,0)"/>
<path d="" fill="#78C1F6" transform="translate(0,0)"/>
<path d="" fill="#030303" transform="translate(0,0)"/>
<path d="" fill="#66BAF4" transform="translate(0,0)"/>
<path d="" fill="#61CFFF" transform="translate(0,0)"/>
<path d="" fill="#50B8E5" transform="translate(0,0)"/>
<path d="" fill="#51BAE6" transform="translate(0,0)"/>
<path d="" fill="#FFFFFF" transform="translate(0,0)"/>
<path d="" fill="#747474" transform="translate(0,0)"/>
<path d="" fill="#53C3F8" transform="translate(0,0)"/>
<path d="" fill="#3BBCEC" transform="translate(0,0)"/>
<path d="" fill="#505050" transform="translate(0,0)"/>
<path d="" fill="#30ACE2" transform="translate(0,0)"/>
<path d="" fill="#4B4B4B" transform="translate(0,0)"/>
<path d="" fill="#2C2C2C" transform="translate(0,0)"/>
<path d="" fill="#000000" transform="translate(0,0)"/>
<path d="" fill="#21A2EC" transform="translate(0,0)"/>
<path d="" fill="#5B5B5B" transform="translate(0,0)"/>
<path d="" fill="#000000" transform="translate(0,0)"/>
<path d="" fill="#252525" transform="translate(0,0)"/>
<path d="" fill="#0A0A0A" transform="translate(0,0)"/>
<path d="" fill="#068FD0" transform="translate(0,0)"/>
<path d="" fill="#4E4E4E" transform="translate(0,0)"/>
<path d="" fill="#1F1F1F" transform="translate(0,0)"/>
<path d="" fill="#090909" transform="translate(0,0)"/>
<path d="" fill="#929292" transform="translate(0,0)"/>
<path d="" fill="#2F2F2F" transform="translate(0,0)"/>
<path d="" fill="#898989" transform="translate(0,0)"/>
<path d="" fill="#717171" transform="translate(0,0)"/>
<path d="" fill="#000000" transform="translate(0,0)"/>
<path d="" fill="#3E3E3E" transform="translate(0,0)"/>
<path d="" fill="#0C0C0C" transform="translate(0,0)"/>
<path d="" fill="#828282" transform="translate(0,0)"/>
<path d="" fill="#080808" transform="translate(0,0)"/>
<path d="" fill="#269FE3" transform="translate(0,0)"/>
<path d="" fill="#1B9BDF" transform="translate(0,0)"/>
<path d="" fill="#1F9CEF" transform="translate(0,0)"/>
<path d="" fill="#000000" transform="translate(0,0)"/>
<path d="" fill="#3FBAF3" transform="translate(0,0)"/>
<path d="" fill="#0789DA" transform="translate(0,0)"/>
<path d="" fill="#35C0E8" transform="translate(0,0)"/>
<path d="" fill="#168CD4" transform="translate(0,0)"/>
<path d="" fill="#2EB0DB" transform="translate(0,0)"/>
<path d="" fill="#3DB4DE" transform="translate(0,0)"/>
<path d="" fill="#545454" transform="translate(0,0)"/>
<path d="" fill="#6B6B6B" transform="translate(0,0)"/>
<path d="" fill="#CBCBCB" transform="translate(0,0)"/>
<path d="" fill="#464646" transform="translate(0,0)"/>
<path d="" fill="#3D3D3D" transform="translate(0,0)"/>
<path d="" fill="#090909" transform="translate(0,0)"/>
<path d="" fill="#000000" transform="translate(0,0)"/>
<path d="" fill="#45C2EE" transform="translate(0,0)"/>
<path d="" fill="#FDFDFD" transform="translate(0,0)"/>
<path d="" fill="#5F5F5F" transform="translate(0,0)"/>
<path d="" fill="#0D0D0D" transform="translate(0,0)"/>
<path d="" fill="#9D9D9D" transform="translate(0,0)"/>
<path d="" fill="#4E4E4E" transform="translate(0,0)"/>
<path d="" fill="#3B3B3B" transform="translate(0,0)"/>
<path d="" fill="#070707" transform="translate(0,0)"/>
<path d="" fill="#474747" transform="translate(0,0)"/>
<path d="" fill="#454545" transform="translate(0,0)"/>
<path d="" fill="#000000" transform="translate(0,0)"/>
<path d="" fill="#575759" transform="translate(0,0)"/>
<path d="" fill="#53CBF0" transform="translate(0,0)"/>
<path d="" fill="#E9E9E9" transform="translate(0,0)"/>
<path d="" fill="#4C4C4C" transform="translate(0,0)"/>
<path d="" fill="#FFFFFF" transform="translate(0,0)"/>
<path d="" fill="#DADADA" transform="translate(0,0)"/>
<path d="" fill="#373737" transform="translate(0,0)"/>
<path d="" fill="#CECECE" transform="translate(0,0)"/>
<path d="" fill="#868686" transform="translate(0,0)"/>
<path d="" fill="#696969" transform="translate(0,0)"/>
<path d="" fill="#D7D7D7" transform="translate(0,0)"/>
<path d="" fill="#E0E0E0" transform="translate(0,0)"/>
<path d="" fill="#6D6D6D" transform="translate(0,0)"/>
<path d="" fill="#E5E5E5" transform="translate(0,0)"/>
<path d="" fill="#D3D3D3" transform="translate(0,0)"/>
<path d="" fill="#E1E1E1" transform="translate(0,0)"/>
<path d="" fill="#EAEAEC" transform="translate(0,0)"/>
<path d="" fill="#1B92D0" transform="translate(0,0)"/>
<path d="" fill="#66CFF7" transform="translate(0,0)"/>
<path d="" fill="#53BEEA" transform="translate(0,0)"/>
<path d="" fill="#65C0EB" transform="translate(0,0)"/>
<path d="" fill="#6BB0CB" transform="translate(0,0)"/>
<path d="" fill="#68B2D2" transform="translate(0,0)"/>
<path d="" fill="#FFFFFF" transform="translate(0,0)"/>
<path d="" fill="#F3F3F3" transform="translate(0,0)"/>
<path d="" fill="#FEFEFE" transform="translate(0,0)"/>
<path d="" fill="#FEFEFE" transform="translate(0,0)"/>
<path d="" fill="#FEFEFE" transform="translate(0,0)"/>
<path d="" fill="#FEFEFE" transform="translate(0,0)"/>
<path d="" fill="#FEFEFE" transform="translate(0,0)"/>
<path d="" fill="#FFFFFF" transform="translate(0,0)"/>
</svg>
